<?xml version="1.0" encoding="utf-8"?>
<!-- Generator: Adobe Illustrator 19.0.0, SVG Export Plug-In . SVG Version: 6.00 Build 0)  -->
<svg version="1.1" id="Layer_1" xmlns:x="&ns_extend;" xmlns:i="&ns_ai;" xmlns:graph="&ns_graphs;"
	 xmlns="http://www.w3.org/2000/svg" xmlns:xlink="http://www.w3.org/1999/xlink" x="0px" y="0px" viewBox="0 0 50 50"
	 style="enable-background:new 0 0 50 50;" xml:space="preserve">
<style type="text/css">
	.st0{fill:#1A8CF3;}
</style>
<metadata>
	<sfw  xmlns="&ns_sfw;">
		<slices></slices>
		<sliceSourceBounds  width="48" height="46.2" y="-13.1" x="-14" bottomLeftOrigin="true"></sliceSourceBounds>
	</sfw>
</metadata>
<path class="st0" d="M40,1.9H10c-5,0-9,4-9,9v21.4c0,5,4,9,9,9h5.4l0.1,5.1c0,0.6,0.3,1.2,0.8,1.5c0.3,0.2,0.6,0.3,0.9,0.3
	c0.3,0,0.5-0.1,0.8-0.2l14.3-6.6H40c5,0,9-4,9-9V10.9C49,5.9,45,1.9,40,1.9z M26,35c-0.3,0.3-0.8,0.5-1.3,0.5
	c-0.5,0-0.9-0.2-1.3-0.5c-0.3-0.3-0.5-0.8-0.5-1.3c0-0.5,0.2-0.9,0.5-1.3c0.3-0.3,0.8-0.5,1.3-0.5c0.5,0,0.9,0.2,1.3,0.5
	c0.3,0.3,0.5,0.8,0.5,1.3C26.5,34.2,26.3,34.7,26,35z M29.1,24C29.1,24,29,24,29.1,24c-1.7,1-2.6,2.6-2.5,4.4c0,1-0.7,1.8-1.7,1.8
	c0,0,0,0-0.1,0c-1,0-1.8-0.8-1.8-1.7c-0.1-3.1,1.5-6,4.2-7.6c1.2-0.8,2-2.1,2-3.5c0-2.3-1.9-4.2-4.2-4.2s-4.2,1.9-4.2,4.2
	c0,1-0.8,1.8-1.8,1.8s-1.8-0.8-1.8-1.8c0-4.3,3.5-7.7,7.7-7.7s7.7,3.5,7.7,7.7C32.7,20.1,31.4,22.5,29.1,24z"/>
</svg>
